<mxfile host="app.diagrams.net" modified="2024-02-20T13:01:22.839Z" agent="Mozilla/5.0 (X11; Linux x86_64; rv:122.0) Gecko/20100101 Firefox/122.0" version="23.1.5" etag="S1Y9CtL0NcC137K-nWjY" type="github">
  <diagram name="Page-1" id="rHUlqRmeN7yiLbmF4C8m">
    <mxGraphModel>
      <root>
        <mxCell id="0" />
        <mxCell id="1" parent="0" />
      </root>
    </mxGraphModel>
  </diagram>
</mxfile>
